<svg xmlns="http://www.w3.org/2000/svg" fill="none" viewBox="0 0 200 300"><g clip-path="url(#a)"><path d="M100 150a50 50 0 11 100 0 50 50 0 01-100 0Z" fill="#1ABCFE"/><path d="M0 250a50 50 0 01 50-50h50v50a50 50 0 11-100 0Z" fill="#0ACF83"/><path d="M100 0v100h50a50 50 0 10 0-100h-50Z" fill="#FF7262"/><path d="M0 50a50 50 0 00 50 50h50V0H50a50 50 0 00-50 50Z" fill="#F24E1E"/><path d="M0 150a50 50 0 00 50 50h50V100H50a50 50 0 00-50 50Z" fill="#A259FF"/></g><defs><clipPath id="a"><path d="M0 0h200v300H0" fill="#fff"/></clipPath></defs></svg>
