<svg xmlns="http://www.w3.org/2000/svg" fill="none" viewBox="0 0 220 320"><path d="M110 310C-8.16 205-37.7 85 110 10c147.7 75 118.16 195 0 300Z" fill="#DB7F60"/><path d="M110 310V10v300Zm0-60c-39.39-20-68.92-45-88.62-75L110 250Zm0-60c-39.39-20-64-40-73.85-60L110 190Zm0-60c-29.54-10-49.23-25-59.08-45L110 130Zm0 120c39.38-20 68.92-45 88.62-75L110 250Zm0-60c39.38-20 64-40 73.85-60L110 190Zm0-60c29.54-10 49.23-25 59.08-45L110 130Z" fill="#000"/><path d="M110 310C-8.16 205-37.7 85 110 10m0 300C228.16 205 257.7 85 110 10m0 300V10M21.38 175C41.08 205 70.61 230 110 250c39.38-20 68.92-45 88.62-75M36.15 130C46 150 70.61 170 110 190c39.38-20 64-40 73.85-60M50.92 85C60.77 105 80.46 120 110 130c29.54-10 49.23-25 59.08-45" stroke="#fff" stroke-opacity=".5" stroke-width="15"/></svg>
